<svg xmlns="http://www.w3.org/2000/svg" viewBox="0 0 2400 640" width="2400" height="640" role="img" aria-label="Miguel Carvalho — Automacao, RPA e analise de dados"><defs>
<linearGradient id="bg" x1="0" y1="0" x2="0" y2="1">
 <stop offset="0" stop-color="#0b0e14"/><stop offset="1" stop-color="#101520"/></linearGradient>
<radialGradient id="halo" cx="50%" cy="50%" r="50%">
 <stop offset="0" stop-color="#2f81f7" stop-opacity="0.10"/>
 <stop offset="1" stop-color="#2f81f7" stop-opacity="0"/></radialGradient>
<path id="orbit" d="M 220.0,291.2 a 980,196 0 1,1 1960,0 a 980,196 0 1,1 -1960,0"/>
</defs><style>
@keyframes rise {from{opacity:0;transform:translateY(18px);}to{opacity:1;transform:translateY(0);}}
@keyframes grow {from{transform:scaleX(0);}to{transform:scaleX(1);}}
@keyframes fade {from{opacity:0;}to{opacity:1;}}
.name{opacity:0;animation:rise 1.2s cubic-bezier(.16,1,.3,1) .1s forwards;}
.rule{transform-origin:1200.0px 0;transform:scaleX(0);animation:grow .9s cubic-bezier(.16,1,.3,1) .95s forwards;}
.sub {opacity:0;animation:rise 1s cubic-bezier(.16,1,.3,1) 1.15s forwards;}
.meta{opacity:0;animation:fade 1.2s ease 1.5s forwards;}
.ring{opacity:0;animation:fade 1.6s ease 1.2s forwards;}
.sat {opacity:0;animation:fade 1.4s ease 1.7s forwards;}
</style><rect width="2400" height="640" fill="url(#bg)"/><ellipse cx="1200.0" cy="291.2" rx="1029.0" ry="372.4" fill="url(#halo)"/><g fill="#2e3744" opacity=".45"><circle cx="130" cy="78" r="1"/><circle cx="130" cy="118" r="1"/><circle cx="130" cy="158" r="1"/><circle cx="130" cy="198" r="1"/><circle cx="130" cy="238" r="1"/><circle cx="130" cy="278" r="1"/><circle cx="130" cy="318" r="1"/><circle cx="130" cy="358" r="1"/><circle cx="130" cy="398" r="1"/><circle cx="130" cy="438" r="1"/><circle cx="130" cy="478" r="1"/><circle cx="130" cy="518" r="1"/><circle cx="130" cy="558" r="1"/><circle cx="170" cy="78" r="1"/><circle cx="170" cy="118" r="1"/><circle cx="170" cy="158" r="1"/><circle cx="170" cy="198" r="1"/><circle cx="170" cy="238" r="1"/><circle cx="170" cy="278" r="1"/><circle cx="170" cy="318" r="1"/><circle cx="170" cy="358" r="1"/><circle cx="170" cy="398" r="1"/><circle cx="170" cy="438" r="1"/><circle cx="170" cy="478" r="1"/><circle cx="170" cy="518" r="1"/><circle cx="170" cy="558" r="1"/><circle cx="210" cy="78" r="1"/><circle cx="210" cy="118" r="1"/><circle cx="210" cy="158" r="1"/><circle cx="210" cy="198" r="1"/><circle cx="210" cy="238" r="1"/><circle cx="210" cy="278" r="1"/><circle cx="210" cy="318" r="1"/><circle cx="210" cy="358" r="1"/><circle cx="210" cy="398" r="1"/><circle cx="210" cy="438" r="1"/><circle cx="210" cy="478" r="1"/><circle cx="210" cy="518" r="1"/><circle cx="210" cy="558" r="1"/><circle cx="250" cy="78" r="1"/><circle cx="250" cy="118" r="1"/><circle cx="250" cy="158" r="1"/><circle cx="250" cy="198" r="1"/><circle cx="250" cy="238" r="1"/><circle cx="250" cy="278" r="1"/><circle cx="250" cy="318" r="1"/><circle cx="250" cy="358" r="1"/><circle cx="250" cy="398" r="1"/><circle cx="250" cy="438" r="1"/><circle cx="250" cy="478" r="1"/><circle cx="250" cy="518" r="1"/><circle cx="250" cy="558" r="1"/><circle cx="290" cy="78" r="1"/><circle cx="290" cy="118" r="1"/><circle cx="290" cy="158" r="1"/><circle cx="290" cy="198" r="1"/><circle cx="290" cy="238" r="1"/><circle cx="290" cy="278" r="1"/><circle cx="290" cy="318" r="1"/><circle cx="290" cy="358" r="1"/><circle cx="290" cy="398" r="1"/><circle cx="290" cy="438" r="1"/><circle cx="290" cy="478" r="1"/><circle cx="290" cy="518" r="1"/><circle cx="290" cy="558" r="1"/><circle cx="330" cy="78" r="1"/><circle cx="330" cy="118" r="1"/><circle cx="330" cy="158" r="1"/><circle cx="330" cy="198" r="1"/><circle cx="330" cy="238" r="1"/><circle cx="330" cy="278" r="1"/><circle cx="330" cy="318" r="1"/><circle cx="330" cy="358" r="1"/><circle cx="330" cy="398" r="1"/><circle cx="330" cy="438" r="1"/><circle cx="330" cy="478" r="1"/><circle cx="330" cy="518" r="1"/><circle cx="330" cy="558" r="1"/><circle cx="370" cy="78" r="1"/><circle cx="370" cy="118" r="1"/><circle cx="370" cy="158" r="1"/><circle cx="370" cy="198" r="1"/><circle cx="370" cy="238" r="1"/><circle cx="370" cy="278" r="1"/><circle cx="370" cy="318" r="1"/><circle cx="370" cy="358" r="1"/><circle cx="370" cy="398" r="1"/><circle cx="370" cy="438" r="1"/><circle cx="370" cy="478" r="1"/><circle cx="370" cy="518" r="1"/><circle cx="370" cy="558" r="1"/><circle cx="410" cy="78" r="1"/><circle cx="410" cy="118" r="1"/><circle cx="410" cy="158" r="1"/><circle cx="410" cy="198" r="1"/><circle cx="410" cy="238" r="1"/><circle cx="410" cy="278" r="1"/><circle cx="410" cy="318" r="1"/><circle cx="410" cy="358" r="1"/><circle cx="410" cy="398" r="1"/><circle cx="410" cy="438" r="1"/><circle cx="410" cy="478" r="1"/><circle cx="410" cy="518" r="1"/><circle cx="410" cy="558" r="1"/><circle cx="450" cy="78" r="1"/><circle cx="450" cy="118" r="1"/><circle cx="450" cy="158" r="1"/><circle cx="450" cy="198" r="1"/><circle cx="450" cy="238" r="1"/><circle cx="450" cy="278" r="1"/><circle cx="450" cy="318" r="1"/><circle cx="450" cy="358" r="1"/><circle cx="450" cy="398" r="1"/><circle cx="450" cy="438" r="1"/><circle cx="450" cy="478" r="1"/><circle cx="450" cy="518" r="1"/><circle cx="450" cy="558" r="1"/><circle cx="490" cy="78" r="1"/><circle cx="490" cy="118" r="1"/><circle cx="490" cy="158" r="1"/><circle cx="490" cy="198" r="1"/><circle cx="490" cy="238" r="1"/><circle cx="490" cy="278" r="1"/><circle cx="490" cy="318" r="1"/><circle cx="490" cy="358" r="1"/><circle cx="490" cy="398" r="1"/><circle cx="490" cy="438" r="1"/><circle cx="490" cy="478" r="1"/><circle cx="490" cy="518" r="1"/><circle cx="490" cy="558" r="1"/><circle cx="530" cy="78" r="1"/><circle cx="530" cy="118" r="1"/><circle cx="530" cy="158" r="1"/><circle cx="530" cy="198" r="1"/><circle cx="530" cy="238" r="1"/><circle cx="530" cy="278" r="1"/><circle cx="530" cy="318" r="1"/><circle cx="530" cy="358" r="1"/><circle cx="530" cy="398" r="1"/><circle cx="530" cy="438" r="1"/><circle cx="530" cy="478" r="1"/><circle cx="530" cy="518" r="1"/><circle cx="530" cy="558" r="1"/><circle cx="570" cy="78" r="1"/><circle cx="570" cy="118" r="1"/><circle cx="570" cy="158" r="1"/><circle cx="570" cy="198" r="1"/><circle cx="570" cy="238" r="1"/><circle cx="570" cy="278" r="1"/><circle cx="570" cy="318" r="1"/><circle cx="570" cy="358" r="1"/><circle cx="570" cy="398" r="1"/><circle cx="570" cy="438" r="1"/><circle cx="570" cy="478" r="1"/><circle cx="570" cy="518" r="1"/><circle cx="570" cy="558" r="1"/><circle cx="610" cy="78" r="1"/><circle cx="610" cy="118" r="1"/><circle cx="610" cy="158" r="1"/><circle cx="610" cy="198" r="1"/><circle cx="610" cy="238" r="1"/><circle cx="610" cy="278" r="1"/><circle cx="610" cy="318" r="1"/><circle cx="610" cy="358" r="1"/><circle cx="610" cy="398" r="1"/><circle cx="610" cy="438" r="1"/><circle cx="610" cy="478" r="1"/><circle cx="610" cy="518" r="1"/><circle cx="610" cy="558" r="1"/><circle cx="650" cy="78" r="1"/><circle cx="650" cy="118" r="1"/><circle cx="650" cy="158" r="1"/><circle cx="650" cy="198" r="1"/><circle cx="650" cy="238" r="1"/><circle cx="650" cy="278" r="1"/><circle cx="650" cy="318" r="1"/><circle cx="650" cy="358" r="1"/><circle cx="650" cy="398" r="1"/><circle cx="650" cy="438" r="1"/><circle cx="650" cy="478" r="1"/><circle cx="650" cy="518" r="1"/><circle cx="650" cy="558" r="1"/><circle cx="690" cy="78" r="1"/><circle cx="690" cy="118" r="1"/><circle cx="690" cy="158" r="1"/><circle cx="690" cy="198" r="1"/><circle cx="690" cy="238" r="1"/><circle cx="690" cy="278" r="1"/><circle cx="690" cy="318" r="1"/><circle cx="690" cy="358" r="1"/><circle cx="690" cy="398" r="1"/><circle cx="690" cy="438" r="1"/><circle cx="690" cy="478" r="1"/><circle cx="690" cy="518" r="1"/><circle cx="690" cy="558" r="1"/><circle cx="730" cy="78" r="1"/><circle cx="730" cy="118" r="1"/><circle cx="730" cy="158" r="1"/><circle cx="730" cy="198" r="1"/><circle cx="730" cy="238" r="1"/><circle cx="730" cy="278" r="1"/><circle cx="730" cy="318" r="1"/><circle cx="730" cy="358" r="1"/><circle cx="730" cy="398" r="1"/><circle cx="730" cy="438" r="1"/><circle cx="730" cy="478" r="1"/><circle cx="730" cy="518" r="1"/><circle cx="730" cy="558" r="1"/><circle cx="770" cy="78" r="1"/><circle cx="770" cy="118" r="1"/><circle cx="770" cy="158" r="1"/><circle cx="770" cy="198" r="1"/><circle cx="770" cy="238" r="1"/><circle cx="770" cy="278" r="1"/><circle cx="770" cy="318" r="1"/><circle cx="770" cy="358" r="1"/><circle cx="770" cy="398" r="1"/><circle cx="770" cy="438" r="1"/><circle cx="770" cy="478" r="1"/><circle cx="770" cy="518" r="1"/><circle cx="770" cy="558" r="1"/><circle cx="810" cy="78" r="1"/><circle cx="810" cy="118" r="1"/><circle cx="810" cy="158" r="1"/><circle cx="810" cy="198" r="1"/><circle cx="810" cy="238" r="1"/><circle cx="810" cy="278" r="1"/><circle cx="810" cy="318" r="1"/><circle cx="810" cy="358" r="1"/><circle cx="810" cy="398" r="1"/><circle cx="810" cy="438" r="1"/><circle cx="810" cy="478" r="1"/><circle cx="810" cy="518" r="1"/><circle cx="810" cy="558" r="1"/><circle cx="850" cy="78" r="1"/><circle cx="850" cy="118" r="1"/><circle cx="850" cy="158" r="1"/><circle cx="850" cy="198" r="1"/><circle cx="850" cy="238" r="1"/><circle cx="850" cy="278" r="1"/><circle cx="850" cy="318" r="1"/><circle cx="850" cy="358" r="1"/><circle cx="850" cy="398" r="1"/><circle cx="850" cy="438" r="1"/><circle cx="850" cy="478" r="1"/><circle cx="850" cy="518" r="1"/><circle cx="850" cy="558" r="1"/><circle cx="890" cy="78" r="1"/><circle cx="890" cy="118" r="1"/><circle cx="890" cy="158" r="1"/><circle cx="890" cy="198" r="1"/><circle cx="890" cy="238" r="1"/><circle cx="890" cy="278" r="1"/><circle cx="890" cy="318" r="1"/><circle cx="890" cy="358" r="1"/><circle cx="890" cy="398" r="1"/><circle cx="890" cy="438" r="1"/><circle cx="890" cy="478" r="1"/><circle cx="890" cy="518" r="1"/><circle cx="890" cy="558" r="1"/><circle cx="930" cy="78" r="1"/><circle cx="930" cy="118" r="1"/><circle cx="930" cy="158" r="1"/><circle cx="930" cy="198" r="1"/><circle cx="930" cy="238" r="1"/><circle cx="930" cy="278" r="1"/><circle cx="930" cy="318" r="1"/><circle cx="930" cy="358" r="1"/><circle cx="930" cy="398" r="1"/><circle cx="930" cy="438" r="1"/><circle cx="930" cy="478" r="1"/><circle cx="930" cy="518" r="1"/><circle cx="930" cy="558" r="1"/><circle cx="970" cy="78" r="1"/><circle cx="970" cy="118" r="1"/><circle cx="970" cy="158" r="1"/><circle cx="970" cy="198" r="1"/><circle cx="970" cy="238" r="1"/><circle cx="970" cy="278" r="1"/><circle cx="970" cy="318" r="1"/><circle cx="970" cy="358" r="1"/><circle cx="970" cy="398" r="1"/><circle cx="970" cy="438" r="1"/><circle cx="970" cy="478" r="1"/><circle cx="970" cy="518" r="1"/><circle cx="970" cy="558" r="1"/><circle cx="1010" cy="78" r="1"/><circle cx="1010" cy="118" r="1"/><circle cx="1010" cy="158" r="1"/><circle cx="1010" cy="198" r="1"/><circle cx="1010" cy="238" r="1"/><circle cx="1010" cy="278" r="1"/><circle cx="1010" cy="318" r="1"/><circle cx="1010" cy="358" r="1"/><circle cx="1010" cy="398" r="1"/><circle cx="1010" cy="438" r="1"/><circle cx="1010" cy="478" r="1"/><circle cx="1010" cy="518" r="1"/><circle cx="1010" cy="558" r="1"/><circle cx="1050" cy="78" r="1"/><circle cx="1050" cy="118" r="1"/><circle cx="1050" cy="158" r="1"/><circle cx="1050" cy="198" r="1"/><circle cx="1050" cy="238" r="1"/><circle cx="1050" cy="278" r="1"/><circle cx="1050" cy="318" r="1"/><circle cx="1050" cy="358" r="1"/><circle cx="1050" cy="398" r="1"/><circle cx="1050" cy="438" r="1"/><circle cx="1050" cy="478" r="1"/><circle cx="1050" cy="518" r="1"/><circle cx="1050" cy="558" r="1"/><circle cx="1090" cy="78" r="1"/><circle cx="1090" cy="118" r="1"/><circle cx="1090" cy="158" r="1"/><circle cx="1090" cy="198" r="1"/><circle cx="1090" cy="238" r="1"/><circle cx="1090" cy="278" r="1"/><circle cx="1090" cy="318" r="1"/><circle cx="1090" cy="358" r="1"/><circle cx="1090" cy="398" r="1"/><circle cx="1090" cy="438" r="1"/><circle cx="1090" cy="478" r="1"/><circle cx="1090" cy="518" r="1"/><circle cx="1090" cy="558" r="1"/><circle cx="1130" cy="78" r="1"/><circle cx="1130" cy="118" r="1"/><circle cx="1130" cy="158" r="1"/><circle cx="1130" cy="198" r="1"/><circle cx="1130" cy="238" r="1"/><circle cx="1130" cy="278" r="1"/><circle cx="1130" cy="318" r="1"/><circle cx="1130" cy="358" r="1"/><circle cx="1130" cy="398" r="1"/><circle cx="1130" cy="438" r="1"/><circle cx="1130" cy="478" r="1"/><circle cx="1130" cy="518" r="1"/><circle cx="1130" cy="558" r="1"/><circle cx="1170" cy="78" r="1"/><circle cx="1170" cy="118" r="1"/><circle cx="1170" cy="158" r="1"/><circle cx="1170" cy="198" r="1"/><circle cx="1170" cy="238" r="1"/><circle cx="1170" cy="278" r="1"/><circle cx="1170" cy="318" r="1"/><circle cx="1170" cy="358" r="1"/><circle cx="1170" cy="398" r="1"/><circle cx="1170" cy="438" r="1"/><circle cx="1170" cy="478" r="1"/><circle cx="1170" cy="518" r="1"/><circle cx="1170" cy="558" r="1"/><circle cx="1210" cy="78" r="1"/><circle cx="1210" cy="118" r="1"/><circle cx="1210" cy="158" r="1"/><circle cx="1210" cy="198" r="1"/><circle cx="1210" cy="238" r="1"/><circle cx="1210" cy="278" r="1"/><circle cx="1210" cy="318" r="1"/><circle cx="1210" cy="358" r="1"/><circle cx="1210" cy="398" r="1"/><circle cx="1210" cy="438" r="1"/><circle cx="1210" cy="478" r="1"/><circle cx="1210" cy="518" r="1"/><circle cx="1210" cy="558" r="1"/><circle cx="1250" cy="78" r="1"/><circle cx="1250" cy="118" r="1"/><circle cx="1250" cy="158" r="1"/><circle cx="1250" cy="198" r="1"/><circle cx="1250" cy="238" r="1"/><circle cx="1250" cy="278" r="1"/><circle cx="1250" cy="318" r="1"/><circle cx="1250" cy="358" r="1"/><circle cx="1250" cy="398" r="1"/><circle cx="1250" cy="438" r="1"/><circle cx="1250" cy="478" r="1"/><circle cx="1250" cy="518" r="1"/><circle cx="1250" cy="558" r="1"/><circle cx="1290" cy="78" r="1"/><circle cx="1290" cy="118" r="1"/><circle cx="1290" cy="158" r="1"/><circle cx="1290" cy="198" r="1"/><circle cx="1290" cy="238" r="1"/><circle cx="1290" cy="278" r="1"/><circle cx="1290" cy="318" r="1"/><circle cx="1290" cy="358" r="1"/><circle cx="1290" cy="398" r="1"/><circle cx="1290" cy="438" r="1"/><circle cx="1290" cy="478" r="1"/><circle cx="1290" cy="518" r="1"/><circle cx="1290" cy="558" r="1"/><circle cx="1330" cy="78" r="1"/><circle cx="1330" cy="118" r="1"/><circle cx="1330" cy="158" r="1"/><circle cx="1330" cy="198" r="1"/><circle cx="1330" cy="238" r="1"/><circle cx="1330" cy="278" r="1"/><circle cx="1330" cy="318" r="1"/><circle cx="1330" cy="358" r="1"/><circle cx="1330" cy="398" r="1"/><circle cx="1330" cy="438" r="1"/><circle cx="1330" cy="478" r="1"/><circle cx="1330" cy="518" r="1"/><circle cx="1330" cy="558" r="1"/><circle cx="1370" cy="78" r="1"/><circle cx="1370" cy="118" r="1"/><circle cx="1370" cy="158" r="1"/><circle cx="1370" cy="198" r="1"/><circle cx="1370" cy="238" r="1"/><circle cx="1370" cy="278" r="1"/><circle cx="1370" cy="318" r="1"/><circle cx="1370" cy="358" r="1"/><circle cx="1370" cy="398" r="1"/><circle cx="1370" cy="438" r="1"/><circle cx="1370" cy="478" r="1"/><circle cx="1370" cy="518" r="1"/><circle cx="1370" cy="558" r="1"/><circle cx="1410" cy="78" r="1"/><circle cx="1410" cy="118" r="1"/><circle cx="1410" cy="158" r="1"/><circle cx="1410" cy="198" r="1"/><circle cx="1410" cy="238" r="1"/><circle cx="1410" cy="278" r="1"/><circle cx="1410" cy="318" r="1"/><circle cx="1410" cy="358" r="1"/><circle cx="1410" cy="398" r="1"/><circle cx="1410" cy="438" r="1"/><circle cx="1410" cy="478" r="1"/><circle cx="1410" cy="518" r="1"/><circle cx="1410" cy="558" r="1"/><circle cx="1450" cy="78" r="1"/><circle cx="1450" cy="118" r="1"/><circle cx="1450" cy="158" r="1"/><circle cx="1450" cy="198" r="1"/><circle cx="1450" cy="238" r="1"/><circle cx="1450" cy="278" r="1"/><circle cx="1450" cy="318" r="1"/><circle cx="1450" cy="358" r="1"/><circle cx="1450" cy="398" r="1"/><circle cx="1450" cy="438" r="1"/><circle cx="1450" cy="478" r="1"/><circle cx="1450" cy="518" r="1"/><circle cx="1450" cy="558" r="1"/><circle cx="1490" cy="78" r="1"/><circle cx="1490" cy="118" r="1"/><circle cx="1490" cy="158" r="1"/><circle cx="1490" cy="198" r="1"/><circle cx="1490" cy="238" r="1"/><circle cx="1490" cy="278" r="1"/><circle cx="1490" cy="318" r="1"/><circle cx="1490" cy="358" r="1"/><circle cx="1490" cy="398" r="1"/><circle cx="1490" cy="438" r="1"/><circle cx="1490" cy="478" r="1"/><circle cx="1490" cy="518" r="1"/><circle cx="1490" cy="558" r="1"/><circle cx="1530" cy="78" r="1"/><circle cx="1530" cy="118" r="1"/><circle cx="1530" cy="158" r="1"/><circle cx="1530" cy="198" r="1"/><circle cx="1530" cy="238" r="1"/><circle cx="1530" cy="278" r="1"/><circle cx="1530" cy="318" r="1"/><circle cx="1530" cy="358" r="1"/><circle cx="1530" cy="398" r="1"/><circle cx="1530" cy="438" r="1"/><circle cx="1530" cy="478" r="1"/><circle cx="1530" cy="518" r="1"/><circle cx="1530" cy="558" r="1"/><circle cx="1570" cy="78" r="1"/><circle cx="1570" cy="118" r="1"/><circle cx="1570" cy="158" r="1"/><circle cx="1570" cy="198" r="1"/><circle cx="1570" cy="238" r="1"/><circle cx="1570" cy="278" r="1"/><circle cx="1570" cy="318" r="1"/><circle cx="1570" cy="358" r="1"/><circle cx="1570" cy="398" r="1"/><circle cx="1570" cy="438" r="1"/><circle cx="1570" cy="478" r="1"/><circle cx="1570" cy="518" r="1"/><circle cx="1570" cy="558" r="1"/><circle cx="1610" cy="78" r="1"/><circle cx="1610" cy="118" r="1"/><circle cx="1610" cy="158" r="1"/><circle cx="1610" cy="198" r="1"/><circle cx="1610" cy="238" r="1"/><circle cx="1610" cy="278" r="1"/><circle cx="1610" cy="318" r="1"/><circle cx="1610" cy="358" r="1"/><circle cx="1610" cy="398" r="1"/><circle cx="1610" cy="438" r="1"/><circle cx="1610" cy="478" r="1"/><circle cx="1610" cy="518" r="1"/><circle cx="1610" cy="558" r="1"/><circle cx="1650" cy="78" r="1"/><circle cx="1650" cy="118" r="1"/><circle cx="1650" cy="158" r="1"/><circle cx="1650" cy="198" r="1"/><circle cx="1650" cy="238" r="1"/><circle cx="1650" cy="278" r="1"/><circle cx="1650" cy="318" r="1"/><circle cx="1650" cy="358" r="1"/><circle cx="1650" cy="398" r="1"/><circle cx="1650" cy="438" r="1"/><circle cx="1650" cy="478" r="1"/><circle cx="1650" cy="518" r="1"/><circle cx="1650" cy="558" r="1"/><circle cx="1690" cy="78" r="1"/><circle cx="1690" cy="118" r="1"/><circle cx="1690" cy="158" r="1"/><circle cx="1690" cy="198" r="1"/><circle cx="1690" cy="238" r="1"/><circle cx="1690" cy="278" r="1"/><circle cx="1690" cy="318" r="1"/><circle cx="1690" cy="358" r="1"/><circle cx="1690" cy="398" r="1"/><circle cx="1690" cy="438" r="1"/><circle cx="1690" cy="478" r="1"/><circle cx="1690" cy="518" r="1"/><circle cx="1690" cy="558" r="1"/><circle cx="1730" cy="78" r="1"/><circle cx="1730" cy="118" r="1"/><circle cx="1730" cy="158" r="1"/><circle cx="1730" cy="198" r="1"/><circle cx="1730" cy="238" r="1"/><circle cx="1730" cy="278" r="1"/><circle cx="1730" cy="318" r="1"/><circle cx="1730" cy="358" r="1"/><circle cx="1730" cy="398" r="1"/><circle cx="1730" cy="438" r="1"/><circle cx="1730" cy="478" r="1"/><circle cx="1730" cy="518" r="1"/><circle cx="1730" cy="558" r="1"/><circle cx="1770" cy="78" r="1"/><circle cx="1770" cy="118" r="1"/><circle cx="1770" cy="158" r="1"/><circle cx="1770" cy="198" r="1"/><circle cx="1770" cy="238" r="1"/><circle cx="1770" cy="278" r="1"/><circle cx="1770" cy="318" r="1"/><circle cx="1770" cy="358" r="1"/><circle cx="1770" cy="398" r="1"/><circle cx="1770" cy="438" r="1"/><circle cx="1770" cy="478" r="1"/><circle cx="1770" cy="518" r="1"/><circle cx="1770" cy="558" r="1"/><circle cx="1810" cy="78" r="1"/><circle cx="1810" cy="118" r="1"/><circle cx="1810" cy="158" r="1"/><circle cx="1810" cy="198" r="1"/><circle cx="1810" cy="238" r="1"/><circle cx="1810" cy="278" r="1"/><circle cx="1810" cy="318" r="1"/><circle cx="1810" cy="358" r="1"/><circle cx="1810" cy="398" r="1"/><circle cx="1810" cy="438" r="1"/><circle cx="1810" cy="478" r="1"/><circle cx="1810" cy="518" r="1"/><circle cx="1810" cy="558" r="1"/><circle cx="1850" cy="78" r="1"/><circle cx="1850" cy="118" r="1"/><circle cx="1850" cy="158" r="1"/><circle cx="1850" cy="198" r="1"/><circle cx="1850" cy="238" r="1"/><circle cx="1850" cy="278" r="1"/><circle cx="1850" cy="318" r="1"/><circle cx="1850" cy="358" r="1"/><circle cx="1850" cy="398" r="1"/><circle cx="1850" cy="438" r="1"/><circle cx="1850" cy="478" r="1"/><circle cx="1850" cy="518" r="1"/><circle cx="1850" cy="558" r="1"/><circle cx="1890" cy="78" r="1"/><circle cx="1890" cy="118" r="1"/><circle cx="1890" cy="158" r="1"/><circle cx="1890" cy="198" r="1"/><circle cx="1890" cy="238" r="1"/><circle cx="1890" cy="278" r="1"/><circle cx="1890" cy="318" r="1"/><circle cx="1890" cy="358" r="1"/><circle cx="1890" cy="398" r="1"/><circle cx="1890" cy="438" r="1"/><circle cx="1890" cy="478" r="1"/><circle cx="1890" cy="518" r="1"/><circle cx="1890" cy="558" r="1"/><circle cx="1930" cy="78" r="1"/><circle cx="1930" cy="118" r="1"/><circle cx="1930" cy="158" r="1"/><circle cx="1930" cy="198" r="1"/><circle cx="1930" cy="238" r="1"/><circle cx="1930" cy="278" r="1"/><circle cx="1930" cy="318" r="1"/><circle cx="1930" cy="358" r="1"/><circle cx="1930" cy="398" r="1"/><circle cx="1930" cy="438" r="1"/><circle cx="1930" cy="478" r="1"/><circle cx="1930" cy="518" r="1"/><circle cx="1930" cy="558" r="1"/><circle cx="1970" cy="78" r="1"/><circle cx="1970" cy="118" r="1"/><circle cx="1970" cy="158" r="1"/><circle cx="1970" cy="198" r="1"/><circle cx="1970" cy="238" r="1"/><circle cx="1970" cy="278" r="1"/><circle cx="1970" cy="318" r="1"/><circle cx="1970" cy="358" r="1"/><circle cx="1970" cy="398" r="1"/><circle cx="1970" cy="438" r="1"/><circle cx="1970" cy="478" r="1"/><circle cx="1970" cy="518" r="1"/><circle cx="1970" cy="558" r="1"/><circle cx="2010" cy="78" r="1"/><circle cx="2010" cy="118" r="1"/><circle cx="2010" cy="158" r="1"/><circle cx="2010" cy="198" r="1"/><circle cx="2010" cy="238" r="1"/><circle cx="2010" cy="278" r="1"/><circle cx="2010" cy="318" r="1"/><circle cx="2010" cy="358" r="1"/><circle cx="2010" cy="398" r="1"/><circle cx="2010" cy="438" r="1"/><circle cx="2010" cy="478" r="1"/><circle cx="2010" cy="518" r="1"/><circle cx="2010" cy="558" r="1"/><circle cx="2050" cy="78" r="1"/><circle cx="2050" cy="118" r="1"/><circle cx="2050" cy="158" r="1"/><circle cx="2050" cy="198" r="1"/><circle cx="2050" cy="238" r="1"/><circle cx="2050" cy="278" r="1"/><circle cx="2050" cy="318" r="1"/><circle cx="2050" cy="358" r="1"/><circle cx="2050" cy="398" r="1"/><circle cx="2050" cy="438" r="1"/><circle cx="2050" cy="478" r="1"/><circle cx="2050" cy="518" r="1"/><circle cx="2050" cy="558" r="1"/><circle cx="2090" cy="78" r="1"/><circle cx="2090" cy="118" r="1"/><circle cx="2090" cy="158" r="1"/><circle cx="2090" cy="198" r="1"/><circle cx="2090" cy="238" r="1"/><circle cx="2090" cy="278" r="1"/><circle cx="2090" cy="318" r="1"/><circle cx="2090" cy="358" r="1"/><circle cx="2090" cy="398" r="1"/><circle cx="2090" cy="438" r="1"/><circle cx="2090" cy="478" r="1"/><circle cx="2090" cy="518" r="1"/><circle cx="2090" cy="558" r="1"/><circle cx="2130" cy="78" r="1"/><circle cx="2130" cy="118" r="1"/><circle cx="2130" cy="158" r="1"/><circle cx="2130" cy="198" r="1"/><circle cx="2130" cy="238" r="1"/><circle cx="2130" cy="278" r="1"/><circle cx="2130" cy="318" r="1"/><circle cx="2130" cy="358" r="1"/><circle cx="2130" cy="398" r="1"/><circle cx="2130" cy="438" r="1"/><circle cx="2130" cy="478" r="1"/><circle cx="2130" cy="518" r="1"/><circle cx="2130" cy="558" r="1"/><circle cx="2170" cy="78" r="1"/><circle cx="2170" cy="118" r="1"/><circle cx="2170" cy="158" r="1"/><circle cx="2170" cy="198" r="1"/><circle cx="2170" cy="238" r="1"/><circle cx="2170" cy="278" r="1"/><circle cx="2170" cy="318" r="1"/><circle cx="2170" cy="358" r="1"/><circle cx="2170" cy="398" r="1"/><circle cx="2170" cy="438" r="1"/><circle cx="2170" cy="478" r="1"/><circle cx="2170" cy="518" r="1"/><circle cx="2170" cy="558" r="1"/><circle cx="2210" cy="78" r="1"/><circle cx="2210" cy="118" r="1"/><circle cx="2210" cy="158" r="1"/><circle cx="2210" cy="198" r="1"/><circle cx="2210" cy="238" r="1"/><circle cx="2210" cy="278" r="1"/><circle cx="2210" cy="318" r="1"/><circle cx="2210" cy="358" r="1"/><circle cx="2210" cy="398" r="1"/><circle cx="2210" cy="438" r="1"/><circle cx="2210" cy="478" r="1"/><circle cx="2210" cy="518" r="1"/><circle cx="2210" cy="558" r="1"/><circle cx="2250" cy="78" r="1"/><circle cx="2250" cy="118" r="1"/><circle cx="2250" cy="158" r="1"/><circle cx="2250" cy="198" r="1"/><circle cx="2250" cy="238" r="1"/><circle cx="2250" cy="278" r="1"/><circle cx="2250" cy="318" r="1"/><circle cx="2250" cy="358" r="1"/><circle cx="2250" cy="398" r="1"/><circle cx="2250" cy="438" r="1"/><circle cx="2250" cy="478" r="1"/><circle cx="2250" cy="518" r="1"/><circle cx="2250" cy="558" r="1"/></g><g class="ring"><use href="#orbit" fill="none" stroke="#2e3744" stroke-width="1.4" stroke-opacity=".85"/></g><g class="sat"><g><g><g><circle r="60.2" fill="#101520" stroke="#2e3744" stroke-width="1.6"/><g transform="translate(-35.0,-35.0) scale(2.9167)"><path d="M14.25.18l.9.2.73.26.59.3.45.32.34.34.25.34.16.33.1.3.04.26.02.2-.01.13V8.5l-.05.63-.13.55-.21.46-.26.38-.3.31-.33.25-.35.19-.35.14-.33.1-.3.07-.26.04-.21.02H8.77l-.69.05-.59.14-.5.22-.41.27-.33.32-.27.35-.2.36-.15.37-.1.35-.07.32-.04.27-.02.21v3.06H3.17l-.21-.03-.28-.07-.32-.12-.35-.18-.36-.26-.36-.36-.35-.46-.32-.59-.28-.73-.21-.88-.14-1.05-.05-1.23.06-1.22.16-1.04.24-.87.32-.71.36-.57.4-.44.42-.33.42-.24.4-.16.36-.1.32-.05.24-.01h.16l.06.01h8.16v-.83H6.18l-.01-2.75-.02-.37.05-.34.11-.31.17-.28.25-.26.31-.23.38-.2.44-.18.51-.15.58-.12.64-.1.71-.06.77-.04.84-.02 1.27.05zm-6.3 1.98l-.23.33-.08.41.08.41.23.34.33.22.41.09.41-.09.33-.22.23-.34.08-.41-.08-.41-.23-.33-.33-.22-.41-.09-.41.09zm13.09 3.95l.28.06.32.12.35.18.36.27.36.35.35.47.32.59.28.73.21.88.14 1.04.05 1.23-.06 1.23-.16 1.04-.24.86-.32.71-.36.57-.4.45-.42.33-.42.24-.4.16-.36.09-.32.05-.24.02-.16-.01h-8.22v.82h5.84l.01 2.76.02.36-.05.34-.11.31-.17.29-.25.25-.31.24-.38.2-.44.17-.51.15-.58.13-.64.09-.71.07-.77.04-.84.01-1.27-.04-1.07-.14-.9-.2-.73-.25-.59-.3-.45-.33-.34-.34-.25-.34-.16-.33-.1-.3-.04-.25-.02-.2.01-.13v-5.34l.05-.64.13-.54.21-.46.26-.38.3-.32.33-.24.35-.2.35-.14.33-.1.3-.06.26-.04.21-.02.13-.01h5.84l.69-.05.59-.14.5-.21.41-.28.33-.32.27-.35.2-.36.15-.36.1-.35.07-.32.04-.28.02-.21V6.07h2.09l.14.01zm-6.47 14.25l-.23.33-.08.41.08.41.23.33.33.23.41.08.41-.08.33-.23.23-.33.08-.41-.08-.41-.23-.33-.33-.23-.41-.08-.41.08z" fill="#3776AB"/></g><animateTransform attributeName="transform" type="scale" dur="24.0s" repeatCount="indefinite" begin="-0.00s" keyTimes="0;0.25;0.5;0.75;1" values="0.92;0.72;0.92;1.12;0.92" calcMode="spline" keySplines="0.4 0 0.6 1;0.4 0 0.6 1;0.4 0 0.6 1;0.4 0 0.6 1"/></g><animate attributeName="opacity" dur="24.0s" repeatCount="indefinite" begin="-0.00s" keyTimes="0;0.25;0.5;0.75;1" values="0.9;0.42;0.9;1;0.9" calcMode="spline" keySplines="0.4 0 0.6 1;0.4 0 0.6 1;0.4 0 0.6 1;0.4 0 0.6 1"/></g><animateMotion dur="24.0s" repeatCount="indefinite" begin="-0.00s" rotate="0"><mpath href="#orbit"/></animateMotion></g><g><g><g><circle r="60.2" fill="#101520" stroke="#2e3744" stroke-width="1.6"/><g transform="translate(-35.0,-35.0) scale(2.9167)"><path d="M23.174 3.468l-7.416 8.322a.228.228 0 0 1-.33 0l-3.786-3.9a.228.228 0 0 1 0-.282L12.872 6a.228.228 0 0 1 .366 0l2.106 2.346a.228.228 0 0 0 .342 0l5.94-8.094A.162.162 0 0 0 21.5 0H.716a.174.174 0 0 0-.174.174v23.652A.174.174 0 0 0 .716 24h22.566a.174.174 0 0 0 .174-.174V3.6a.162.162 0 0 0-.282-.132zM6.932 21.366a5.706 5.706 0 0 1-4.05-1.44.222.222 0 0 1 0-.288l.882-1.236a.222.222 0 0 1 .33-.036 4.338 4.338 0 0 0 2.964 1.158c1.158 0 1.722-.534 1.722-1.098 0-1.752-5.7-.552-5.7-4.278 0-1.65 1.428-3 3.756-3a5.568 5.568 0 0 1 3.708 1.242.222.222 0 0 1 0 .3l-.906 1.2a.222.222 0 0 1-.318.036 4.29 4.29 0 0 0-2.706-.936c-.906 0-1.41.402-1.41.996 0 1.572 5.688.522 5.688 4.2.006 1.812-1.284 3.18-3.96 3.18zm12.438-3.432a.192.192 0 0 1-.192.192h-5.202a.06.06 0 0 0-.06.066 1.986 1.986 0 0 0 2.106 1.638 3.264 3.264 0 0 0 1.8-.6.192.192 0 0 1 .276.042l.636.93a.198.198 0 0 1-.042.264 4.71 4.71 0 0 1-2.892.9 3.726 3.726 0 0 1-3.93-3.87 3.744 3.744 0 0 1 3.81-3.852c2.196 0 3.684 1.644 3.684 4.05zm-3.684-2.748a1.758 1.758 0 0 0-1.8 1.56.06.06 0 0 0 .06.066h3.492a.06.06 0 0 0 .06-.066 1.698 1.698 0 0 0-1.812-1.56Z" fill="#43B02A"/></g><animateTransform attributeName="transform" type="scale" dur="24.0s" repeatCount="indefinite" begin="-4.00s" keyTimes="0;0.25;0.5;0.75;1" values="0.92;0.72;0.92;1.12;0.92" calcMode="spline" keySplines="0.4 0 0.6 1;0.4 0 0.6 1;0.4 0 0.6 1;0.4 0 0.6 1"/></g><animate attributeName="opacity" dur="24.0s" repeatCount="indefinite" begin="-4.00s" keyTimes="0;0.25;0.5;0.75;1" values="0.9;0.42;0.9;1;0.9" calcMode="spline" keySplines="0.4 0 0.6 1;0.4 0 0.6 1;0.4 0 0.6 1;0.4 0 0.6 1"/></g><animateMotion dur="24.0s" repeatCount="indefinite" begin="-4.00s" rotate="0"><mpath href="#orbit"/></animateMotion></g><g><g><g><circle r="60.2" fill="#101520" stroke="#2e3744" stroke-width="1.6"/><g transform="translate(-35.0,-35.0) scale(2.9167)"><path d="M0 0h24v24H0V0zm22.034 18.276c-.175-1.095-.888-2.015-3.003-2.873-.736-.345-1.554-.585-1.797-1.14-.091-.33-.105-.51-.046-.705.15-.646.915-.84 1.515-.66.39.12.75.42.976.9 1.034-.676 1.034-.676 1.755-1.125-.27-.42-.404-.601-.586-.78-.63-.705-1.469-1.065-2.834-1.034l-.705.089c-.676.165-1.32.525-1.71 1.005-1.14 1.291-.811 3.541.569 4.471 1.365 1.02 3.361 1.244 3.616 2.205.24 1.17-.87 1.545-1.966 1.41-.811-.18-1.26-.586-1.755-1.336l-1.83 1.051c.21.48.45.689.81 1.109 1.74 1.756 6.09 1.666 6.871-1.004.029-.09.24-.705.074-1.65l.046.067zm-8.983-7.245h-2.248c0 1.938-.009 3.864-.009 5.805 0 1.232.063 2.363-.138 2.711-.33.689-1.18.601-1.566.48-.396-.196-.597-.466-.83-.855-.063-.105-.11-.196-.127-.196l-1.825 1.125c.305.63.75 1.172 1.324 1.517.855.51 2.004.675 3.207.405.783-.226 1.458-.691 1.811-1.411.51-.93.402-2.07.397-3.346.012-2.054 0-4.109 0-6.179l.004-.056z" fill="#F7DF1E"/></g><animateTransform attributeName="transform" type="scale" dur="24.0s" repeatCount="indefinite" begin="-8.00s" keyTimes="0;0.25;0.5;0.75;1" values="0.92;0.72;0.92;1.12;0.92" calcMode="spline" keySplines="0.4 0 0.6 1;0.4 0 0.6 1;0.4 0 0.6 1;0.4 0 0.6 1"/></g><animate attributeName="opacity" dur="24.0s" repeatCount="indefinite" begin="-8.00s" keyTimes="0;0.25;0.5;0.75;1" values="0.9;0.42;0.9;1;0.9" calcMode="spline" keySplines="0.4 0 0.6 1;0.4 0 0.6 1;0.4 0 0.6 1;0.4 0 0.6 1"/></g><animateMotion dur="24.0s" repeatCount="indefinite" begin="-8.00s" rotate="0"><mpath href="#orbit"/></animateMotion></g><g><g><g><circle r="60.2" fill="#101520" stroke="#2e3744" stroke-width="1.6"/><g transform="translate(-35.0,-35.0) scale(2.9167)"><path d="M12.363 2.54a3.136 3.136 0 0 0-.376.022 2.864 2.864 0 0 0-1.589.828c-.562.58-.82 1.115-.773 1.943-.01.264.193 1.023.272 1.274 1.115 3.546 2.09 6.75 3.26 10.279.08.246.168.486.267.72.02.047.035.046.048-.004.077-.297.174-.612.29-.945.894-2.576 1.772-5.14 2.633-7.696a.345.345 0 0 0 .004-.217 163.054 163.054 0 0 0-1.49-4.572 2.603 2.603 0 0 0-.704-.933c-.55-.46-1.166-.694-1.842-.7Zm9.078.117a2.734 2.734 0 0 0-2.878 1.828l-4.576 13.289a2.734 2.734 0 0 0 1.695 3.475l.12.04a2.734 2.734 0 0 0 3.475-1.694L23.85 6.307a2.734 2.734 0 0 0-1.695-3.476c-.233-.1-.506-.124-.716-.174ZM12.375 3.96a1.396 1.396 0 1 1 0 2.791 1.395 1.395 0 0 1 0-2.79zm8.809.07a1.402 1.402 0 1 1 0 2.803 1.402 1.402 0 0 1 0-2.803zM5.419 7.605a2.853 2.853 0 0 0-.468.052 2.683 2.683 0 0 0-1.337.627 2.62 2.62 0 0 0-.924 1.833 3.808 3.808 0 0 0 0 .648 2.52 2.52 0 0 0 .673 1.52c.221.238.465.454.732.648 3.043 2.21 6.08 4.43 9.108 6.664a.78.78 0 0 0 .158.089c.03-.043.032-.098.007-.167a17.409 17.409 0 0 0-.317-1.066 532.752 532.752 0 0 1-2.02-6.251 41.91 41.91 0 0 0-.497-1.477c-.967-.849-2.078-1.6-3.023-2.302A3.848 3.848 0 0 0 6.153 7.7a2.388 2.388 0 0 0-.734-.094Zm.02 1.424a1.398 1.398 0 1 1 0 2.796 1.398 1.398 0 0 1 0-2.796zm-2.458 6.792c-.733-.006-1.375.202-1.927.622a2.72 2.72 0 0 0-.95 1.45 2.78 2.78 0 0 0-.09 1.04 2.74 2.74 0 0 0 .695 1.583c.664.578 1.26.85 2 .945 1.42-.005 2.84-.012 4.262-.02h.418c2.277-.003 4.513-.002 6.706.003.148.005.28.003.392-.01.06-.005.091-.031.092-.077a10.656 10.656 0 0 0-.834-.653 488.746 488.746 0 0 1-6.57-4.815.236.236 0 0 0-.14-.047c-1.34-.003-2.691-.01-4.054-.02zm-.19 1.418a1.402 1.402 0 1 1 0 2.803 1.402 1.402 0 0 1 0-2.803zm13.874.002a1.4 1.4 0 1 1 0 2.8 1.4 1.4 0 0 1 0-2.8z" fill="#4285F4"/></g><animateTransform attributeName="transform" type="scale" dur="24.0s" repeatCount="indefinite" begin="-12.00s" keyTimes="0;0.25;0.5;0.75;1" values="0.92;0.72;0.92;1.12;0.92" calcMode="spline" keySplines="0.4 0 0.6 1;0.4 0 0.6 1;0.4 0 0.6 1;0.4 0 0.6 1"/></g><animate attributeName="opacity" dur="24.0s" repeatCount="indefinite" begin="-12.00s" keyTimes="0;0.25;0.5;0.75;1" values="0.9;0.42;0.9;1;0.9" calcMode="spline" keySplines="0.4 0 0.6 1;0.4 0 0.6 1;0.4 0 0.6 1;0.4 0 0.6 1"/></g><animateMotion dur="24.0s" repeatCount="indefinite" begin="-12.00s" rotate="0"><mpath href="#orbit"/></animateMotion></g><g><g><g><circle r="60.2" fill="#101520" stroke="#2e3744" stroke-width="1.6"/><g transform="translate(-35.0,-35.0) scale(2.9167)"><path d="M16.922 0h2.623v18.104h-2.623zm-4.126 12.94h2.623v2.57h-2.623zm0-7.037h2.623v5.446h-2.623zm0 11.197h2.623v5.446h-2.623zM4.456 5.896h2.622V24H4.455zm4.213 2.559h2.623v2.57H8.67zm0 4.151h2.623v5.447H8.67zm0-11.187h2.623v5.446H8.67Z" fill="#e9edf3"/></g><animateTransform attributeName="transform" type="scale" dur="24.0s" repeatCount="indefinite" begin="-16.00s" keyTimes="0;0.25;0.5;0.75;1" values="0.92;0.72;0.92;1.12;0.92" calcMode="spline" keySplines="0.4 0 0.6 1;0.4 0 0.6 1;0.4 0 0.6 1;0.4 0 0.6 1"/></g><animate attributeName="opacity" dur="24.0s" repeatCount="indefinite" begin="-16.00s" keyTimes="0;0.25;0.5;0.75;1" values="0.9;0.42;0.9;1;0.9" calcMode="spline" keySplines="0.4 0 0.6 1;0.4 0 0.6 1;0.4 0 0.6 1;0.4 0 0.6 1"/></g><animateMotion dur="24.0s" repeatCount="indefinite" begin="-16.00s" rotate="0"><mpath href="#orbit"/></animateMotion></g><g><g><g><circle r="60.2" fill="#101520" stroke="#2e3744" stroke-width="1.6"/><g transform="translate(-35.0,-35.0) scale(2.9167)"><path d="M13.09 23.549a1.54 1.54 0 0 1-2.18 0L.451 13.089a1.54 1.54 0 0 1 0-2.179l7.191-7.19 2.733 2.733a1.85 1.85 0 0 0 .964 2.326v6.66a1.849 1.849 0 1 0 1.54 0V8.957l2.508 2.508a1.85 1.85 0 1 0 1.09-1.09l-2.634-2.634a1.85 1.85 0 0 0-2.378-2.377L8.73 2.63 10.91.451a1.54 1.54 0 0 1 2.179 0l10.459 10.46a1.54 1.54 0 0 1 0 2.179z" fill="#F03C2E"/></g><animateTransform attributeName="transform" type="scale" dur="24.0s" repeatCount="indefinite" begin="-20.00s" keyTimes="0;0.25;0.5;0.75;1" values="0.92;0.72;0.92;1.12;0.92" calcMode="spline" keySplines="0.4 0 0.6 1;0.4 0 0.6 1;0.4 0 0.6 1;0.4 0 0.6 1"/></g><animate attributeName="opacity" dur="24.0s" repeatCount="indefinite" begin="-20.00s" keyTimes="0;0.25;0.5;0.75;1" values="0.9;0.42;0.9;1;0.9" calcMode="spline" keySplines="0.4 0 0.6 1;0.4 0 0.6 1;0.4 0 0.6 1;0.4 0 0.6 1"/></g><animateMotion dur="24.0s" repeatCount="indefinite" begin="-20.00s" rotate="0"><mpath href="#orbit"/></animateMotion></g></g><g class="name" fill="#e9edf3"><g transform="translate(605.19,313.20) scale(0.122000,-0.122000)"><path d="M50 0V720H290L490 26H403L603 720H844V0H692V677H718L523 0H364L171 671H196V0Z" transform="translate(0.00,0)"/><path d="M50 0V720H204V0Z" transform="translate(894.00,0)"/><path d="M406 -10Q289 -10 205.0 36.0Q121 82 75.5 165.0Q30 248 30 359Q30 469 76.0 552.5Q122 636 203.5 683.0Q285 730 393 730Q482 730 552.5 698.0Q623 666 666.5 610.5Q710 555 718 482H564Q554 541 508.5 574.5Q463 608 395 608Q332 608 285.0 578.5Q238 549 212.0 494.0Q186 439 186 362Q186 282 212.0 225.5Q238 169 288.5 139.5Q339 110 413 110Q473 110 515.0 125.0Q557 140 579 167L725 109Q667 51 590.5 20.5Q514 -10 406 -10ZM571 109V307L602 276H412V394H725V109Z" transform="translate(1148.00,0)"/><path d="M349 -10Q195 -10 118.5 74.5Q42 159 42 321V720H196V294Q196 200 237.0 156.0Q278 112 350 112Q422 112 463.0 156.0Q504 200 504 293V720H658V319Q658 159 581.0 74.5Q504 -10 349 -10Z" transform="translate(1911.00,0)"/><path d="M50 0V720H204V0ZM122 0V118H586V0ZM122 310V426H551V310ZM122 602V720H574V602Z" transform="translate(2611.00,0)"/><path d="M50 0V720H204V0ZM122 0V118H550V0Z" transform="translate(3237.00,0)"/><path d="M391 -10Q313 -10 247.0 17.5Q181 45 132.5 95.0Q84 145 57.0 213.5Q30 282 30 363Q30 444 56.5 511.0Q83 578 131.5 627.5Q180 677 246.0 703.5Q312 730 391 730Q480 730 551.5 695.5Q623 661 668.5 598.5Q714 536 724 452H574Q561 529 511.0 568.5Q461 608 392 608Q331 608 284.5 579.0Q238 550 212.0 495.5Q186 441 186 364Q186 286 212.5 229.5Q239 173 286.0 142.5Q333 112 394 112Q459 112 509.0 151.0Q559 190 574 267H726Q713 183 667.0 120.5Q621 58 550.0 24.0Q479 -10 391 -10Z" transform="translate(4017.00,0)"/><path d="M24 0 282 720H414L177 0ZM552 0 316 720H454L712 0ZM160 279H564V159H160Z" transform="translate(4767.00,0)"/><path d="M46 0V720H368Q446 720 504.0 693.5Q562 667 594.0 619.0Q626 571 626 507Q626 444 594.0 396.5Q562 349 504.0 322.5Q446 296 368 296H168V409H364Q419 409 448.5 434.5Q478 460 478 506Q478 553 449.0 577.5Q420 602 364 602H200V0ZM452 0 163 374H326L660 0Z" transform="translate(5503.00,0)"/><path d="M282 0 24 720H184L381 120H362L560 720H712L454 0Z" transform="translate(6171.00,0)"/><path d="M24 0 282 720H414L177 0ZM552 0 316 720H454L712 0ZM160 279H564V159H160Z" transform="translate(6907.00,0)"/><path d="M50 0V720H204V0ZM122 0V118H550V0Z" transform="translate(7643.00,0)"/><path d="M50 0V720H204V0ZM516 0V720H670V0ZM122 434H586V316H122Z" transform="translate(8233.00,0)"/><path d="M399 -10Q319 -10 251.5 17.0Q184 44 134.5 93.5Q85 143 57.5 211.5Q30 280 30 363Q30 473 77.0 555.5Q124 638 207.5 684.0Q291 730 398 730Q507 730 590.0 684.0Q673 638 720.5 555.0Q768 472 768 362Q768 280 740.5 211.5Q713 143 663.5 93.5Q614 44 546.5 17.0Q479 -10 399 -10ZM398 112Q461 112 509.0 144.0Q557 176 584.5 232.5Q612 289 612 364Q612 438 585.0 493.0Q558 548 510.0 578.0Q462 608 398 608Q335 608 287.0 578.0Q239 548 212.5 493.5Q186 439 186 364Q186 288 213.0 231.5Q240 175 288.0 143.5Q336 112 398 112Z" transform="translate(8953.00,0)"/></g></g><rect class="rule" x="1130.0" y="351.2" width="140" height="4" fill="#2f81f7"/><g class="sub" fill="#7d8a9c"><g transform="translate(917.80,409.20) scale(0.024000,-0.024000)"><path d="M50 0 240 730H361L550 0H459L411 194H190L142 0ZM208 270H392L336 495Q320 559 311.0 602.0Q302 645 300 658Q298 645 289.0 602.0Q280 559 264 496Z" transform="translate(0.00,0)"/><path d="M300 -10Q198 -10 144.0 46.5Q90 103 90 200V730H180V200Q180 140 209.5 105.0Q239 70 300 70Q360 70 390.0 105.0Q420 140 420 200V730H510V200Q510 102 456.5 46.0Q403 -10 300 -10Z" transform="translate(691.67,0)"/><path d="M255 0V649H55V731H545V649H345V0Z" transform="translate(1383.33,0)"/><path d="M300 -10Q234 -10 186.5 15.0Q139 40 113.5 87.5Q88 135 88 200V530Q88 596 113.5 643.0Q139 690 186.5 715.0Q234 740 300 740Q366 740 413.5 715.0Q461 690 486.5 643.0Q512 596 512 531V200Q512 135 486.5 87.5Q461 40 413.5 15.0Q366 -10 300 -10ZM300 71Q359 71 390.5 104.5Q422 138 422 200V530Q422 592 390.5 625.5Q359 659 300 659Q242 659 210.0 625.5Q178 592 178 530V200Q178 138 210.0 104.5Q242 71 300 71Z" transform="translate(2075.00,0)"/><path d="M76 0V730H194L270 494Q281 462 290.0 430.5Q299 399 303 382Q308 399 316.0 430.5Q324 462 334 495L406 730H524V0H436V265Q436 309 439.0 365.0Q442 421 447.0 479.5Q452 538 457.5 591.5Q463 645 467 685L349 320H254L135 685Q140 646 145.0 594.5Q150 543 154.0 485.5Q158 428 161.0 371.0Q164 314 164 265V0Z" transform="translate(2766.67,0)"/><path d="M50 0 240 730H361L550 0H459L411 194H190L142 0ZM208 270H392L336 495Q320 559 311.0 602.0Q302 645 300 658Q298 645 289.0 602.0Q280 559 264 496Z" transform="translate(3458.33,0)"/><path d="M210 -203V-148H280Q302 -148 315.5 -136.5Q329 -125 329 -112Q329 -95 301.5 -82.0Q274 -69 224 -69L259 26H316L295 -35Q321 -38 349.0 -48.0Q377 -58 396.0 -76.0Q415 -94 415 -120Q415 -154 382.0 -178.5Q349 -203 295 -203ZM304 -10Q238 -10 189.5 15.0Q141 40 114.5 87.5Q88 135 88 200V530Q88 596 114.5 643.0Q141 690 189.5 715.0Q238 740 304 740Q370 740 418.0 714.5Q466 689 492.0 642.0Q518 595 518 530H428Q428 592 395.5 625.5Q363 659 304 659Q245 659 211.5 626.0Q178 593 178 531V200Q178 138 211.5 104.5Q245 71 304 71Q363 71 395.5 104.5Q428 138 428 200H518Q518 136 492.0 88.5Q466 41 418.0 15.5Q370 -10 304 -10Z" transform="translate(4150.00,0)"/><path d="M50 0 240 730H361L550 0H459L411 194H190L142 0ZM208 270H392L336 495Q320 559 311.0 602.0Q302 645 300 658Q298 645 289.0 602.0Q280 559 264 496ZM370 815Q340 815 321.0 825.5Q302 836 289.0 850.0Q276 864 264.0 874.5Q252 885 235 885Q222 885 213.5 876.5Q205 868 205 850V820H140V850Q140 895 165.0 920.0Q190 945 230 945Q260 945 279.0 934.5Q298 924 311.0 910.0Q324 896 336.0 885.5Q348 875 365 875Q379 875 387.0 883.5Q395 892 395 910V940H460V910Q460 865 435.5 840.0Q411 815 370 815Z" transform="translate(4841.67,0)"/><path d="M300 -10Q234 -10 186.5 15.0Q139 40 113.5 87.5Q88 135 88 200V530Q88 596 113.5 643.0Q139 690 186.5 715.0Q234 740 300 740Q366 740 413.5 715.0Q461 690 486.5 643.0Q512 596 512 531V200Q512 135 486.5 87.5Q461 40 413.5 15.0Q366 -10 300 -10ZM300 71Q359 71 390.5 104.5Q422 138 422 200V530Q422 592 390.5 625.5Q359 659 300 659Q242 659 210.0 625.5Q178 592 178 530V200Q178 138 210.0 104.5Q242 71 300 71Z" transform="translate(5533.33,0)"/><path d="M300 260Q262 260 239.5 282.0Q217 304 217 341Q217 380 239.5 403.0Q262 426 300 426Q338 426 360.5 403.0Q383 380 383 341Q383 304 360.5 282.0Q338 260 300 260Z" transform="translate(6916.67,0)"/><path d="M92 0V730H318Q383 730 432.0 703.5Q481 677 508.0 630.0Q535 583 535 520Q535 446 496.5 393.0Q458 340 392 320L545 0H439L299 310H182V0ZM182 391H318Q374 391 408.0 426.5Q442 462 442 520Q442 579 408.0 614.0Q374 649 318 649H182Z" transform="translate(8300.00,0)"/><path d="M92 0V730H327Q395 730 445.0 703.5Q495 677 522.5 629.0Q550 581 550 515Q550 450 522.5 401.5Q495 353 445.0 326.5Q395 300 327 300H182V0ZM182 381H327Q386 381 421.5 417.5Q457 454 457 515Q457 577 421.5 613.0Q386 649 327 649H182Z" transform="translate(8991.67,0)"/><path d="M50 0 240 730H361L550 0H459L411 194H190L142 0ZM208 270H392L336 495Q320 559 311.0 602.0Q302 645 300 658Q298 645 289.0 602.0Q280 559 264 496Z" transform="translate(9683.33,0)"/><path d="M300 260Q262 260 239.5 282.0Q217 304 217 341Q217 380 239.5 403.0Q262 426 300 426Q338 426 360.5 403.0Q383 380 383 341Q383 304 360.5 282.0Q338 260 300 260Z" transform="translate(11066.67,0)"/><path d="M50 0 240 730H361L550 0H459L411 194H190L142 0ZM208 270H392L336 495Q320 559 311.0 602.0Q302 645 300 658Q298 645 289.0 602.0Q280 559 264 496Z" transform="translate(12450.00,0)"/><path d="M90 0V730H210L433 105Q431 130 428.5 166.5Q426 203 424.5 243.5Q423 284 423 320V730H510V0H390L168 625Q170 601 172.0 564.5Q174 528 175.5 487.5Q177 447 177 410V0Z" transform="translate(13141.67,0)"/><path d="M50 0 240 730H361L550 0H459L411 194H190L142 0ZM208 270H392L336 495Q320 559 311.0 602.0Q302 645 300 658Q298 645 289.0 602.0Q280 559 264 496ZM242 810 348 950H445L334 810Z" transform="translate(13833.33,0)"/><path d="M115 0V730H205V82H535V0Z" transform="translate(14525.00,0)"/><path d="M105 0V82H254V648H105V730H495V648H346V82H495V0Z" transform="translate(15216.67,0)"/><path d="M304 -10Q232 -10 180.5 14.0Q129 38 101.0 83.0Q73 128 72 190H162Q162 135 199.5 103.0Q237 71 304 71Q367 71 402.5 102.0Q438 133 438 188Q438 232 414.5 265.0Q391 298 347 311L248 342Q173 365 132.5 419.0Q92 473 92 546Q92 605 118.5 648.5Q145 692 193.0 716.5Q241 741 306 741Q402 741 460.0 687.5Q518 634 519 545H429Q429 599 396.5 629.5Q364 660 305 660Q247 660 214.5 632.0Q182 604 182 554Q182 509 206.0 476.0Q230 443 275 429L375 397Q448 374 488.0 319.0Q528 264 528 190Q528 130 500.0 85.0Q472 40 421.5 15.0Q371 -10 304 -10Z" transform="translate(15908.33,0)"/><path d="M100 0V730H520V648H189V422H485V341H189V82H520V0Z" transform="translate(16600.00,0)"/><path d="M92 0V730H281Q352 730 403.5 703.0Q455 676 483.5 627.0Q512 578 512 511V220Q512 153 483.5 103.5Q455 54 403.5 27.0Q352 0 281 0ZM182 80H281Q347 80 384.5 117.0Q422 154 422 220V511Q422 576 384.5 613.0Q347 650 281 650H182Z" transform="translate(17983.33,0)"/><path d="M100 0V730H520V648H189V422H485V341H189V82H520V0Z" transform="translate(18675.00,0)"/><path d="M92 0V730H281Q352 730 403.5 703.0Q455 676 483.5 627.0Q512 578 512 511V220Q512 153 483.5 103.5Q455 54 403.5 27.0Q352 0 281 0ZM182 80H281Q347 80 384.5 117.0Q422 154 422 220V511Q422 576 384.5 613.0Q347 650 281 650H182Z" transform="translate(20058.33,0)"/><path d="M50 0 240 730H361L550 0H459L411 194H190L142 0ZM208 270H392L336 495Q320 559 311.0 602.0Q302 645 300 658Q298 645 289.0 602.0Q280 559 264 496Z" transform="translate(20750.00,0)"/><path d="M92 0V730H281Q352 730 403.5 703.0Q455 676 483.5 627.0Q512 578 512 511V220Q512 153 483.5 103.5Q455 54 403.5 27.0Q352 0 281 0ZM182 80H281Q347 80 384.5 117.0Q422 154 422 220V511Q422 576 384.5 613.0Q347 650 281 650H182Z" transform="translate(21441.67,0)"/><path d="M300 -10Q234 -10 186.5 15.0Q139 40 113.5 87.5Q88 135 88 200V530Q88 596 113.5 643.0Q139 690 186.5 715.0Q234 740 300 740Q366 740 413.5 715.0Q461 690 486.5 643.0Q512 596 512 531V200Q512 135 486.5 87.5Q461 40 413.5 15.0Q366 -10 300 -10ZM300 71Q359 71 390.5 104.5Q422 138 422 200V530Q422 592 390.5 625.5Q359 659 300 659Q242 659 210.0 625.5Q178 592 178 530V200Q178 138 210.0 104.5Q242 71 300 71Z" transform="translate(22133.33,0)"/><path d="M304 -10Q232 -10 180.5 14.0Q129 38 101.0 83.0Q73 128 72 190H162Q162 135 199.5 103.0Q237 71 304 71Q367 71 402.5 102.0Q438 133 438 188Q438 232 414.5 265.0Q391 298 347 311L248 342Q173 365 132.5 419.0Q92 473 92 546Q92 605 118.5 648.5Q145 692 193.0 716.5Q241 741 306 741Q402 741 460.0 687.5Q518 634 519 545H429Q429 599 396.5 629.5Q364 660 305 660Q247 660 214.5 632.0Q182 604 182 554Q182 509 206.0 476.0Q230 443 275 429L375 397Q448 374 488.0 319.0Q528 264 528 190Q528 130 500.0 85.0Q472 40 421.5 15.0Q371 -10 304 -10Z" transform="translate(22825.00,0)"/></g></g><g class="meta"><g fill="#7d8a9c" opacity=".7"><g transform="translate(130.00,86.00) scale(0.017000,-0.017000)"><path d="M105 0V82H254V648H105V730H495V648H346V82H495V0ZM242 810 348 950H445L334 810Z" transform="translate(0.00,0)"/><path d="M90 0V730H210L433 105Q431 130 428.5 166.5Q426 203 424.5 243.5Q423 284 423 320V730H510V0H390L168 625Q170 601 172.0 564.5Q174 528 175.5 487.5Q177 447 177 410V0Z" transform="translate(752.94,0)"/><path d="M92 0V730H281Q352 730 403.5 703.0Q455 676 483.5 627.0Q512 578 512 511V220Q512 153 483.5 103.5Q455 54 403.5 27.0Q352 0 281 0ZM182 80H281Q347 80 384.5 117.0Q422 154 422 220V511Q422 576 384.5 613.0Q347 650 281 650H182Z" transform="translate(1505.88,0)"/><path d="M105 0V82H254V648H105V730H495V648H346V82H495V0Z" transform="translate(2258.82,0)"/><path d="M304 -10Q238 -10 189.5 15.0Q141 40 114.5 87.5Q88 135 88 200V530Q88 596 114.5 643.0Q141 690 189.5 715.0Q238 740 304 740Q370 740 418.0 714.5Q466 689 492.0 642.0Q518 595 518 530H428Q428 592 395.5 625.5Q363 659 304 659Q245 659 211.5 626.0Q178 593 178 531V200Q178 138 211.5 104.5Q245 71 304 71Q363 71 395.5 104.5Q428 138 428 200H518Q518 136 492.0 88.5Q466 41 418.0 15.5Q370 -10 304 -10Z" transform="translate(3011.76,0)"/><path d="M100 0V730H520V648H189V422H485V341H189V82H520V0Z" transform="translate(3764.71,0)"/><path d="M300 -10Q233 -10 183.5 16.5Q134 43 107.0 91.5Q80 140 80 205V525Q80 591 107.0 639.0Q134 687 183.5 713.5Q233 740 300 740Q368 740 417.0 713.5Q466 687 493.0 639.0Q520 591 520 525V205Q520 140 493.0 91.5Q466 43 416.5 16.5Q367 -10 300 -10ZM300 67Q360 67 396.5 105.5Q433 144 433 205V525Q433 586 396.5 624.5Q360 663 300 663Q240 663 203.5 624.5Q167 586 167 525V205Q167 144 203.5 105.5Q240 67 300 67ZM300 306Q273 306 256.5 323.0Q240 340 240 368Q240 395 256.5 411.5Q273 428 300 428Q327 428 343.5 411.5Q360 395 360 368Q360 340 343.5 323.0Q327 306 300 306Z" transform="translate(5270.59,0)"/><path d="M90 0V82H288V655L90 507V607L255 730H378V82H540V0Z" transform="translate(6023.53,0)"/><path d="M0 290V370H600V290Z" transform="translate(7529.41,0)"/><path d="M92 0V730H327Q395 730 445.0 703.5Q495 677 522.5 629.0Q550 581 550 515Q550 450 522.5 401.5Q495 353 445.0 326.5Q395 300 327 300H182V0ZM182 381H327Q386 381 421.5 417.5Q457 454 457 515Q457 577 421.5 613.0Q386 649 327 649H182Z" transform="translate(9035.29,0)"/><path d="M100 0V730H520V648H189V422H485V341H189V82H520V0Z" transform="translate(9788.24,0)"/><path d="M92 0V730H318Q383 730 432.0 703.5Q481 677 508.0 630.0Q535 583 535 520Q535 446 496.5 393.0Q458 340 392 320L545 0H439L299 310H182V0ZM182 391H318Q374 391 408.0 426.5Q442 462 442 520Q442 579 408.0 614.0Q374 649 318 649H182Z" transform="translate(10541.18,0)"/><path d="M95 0V731H525V649H183V406H499V324H185V0Z" transform="translate(11294.12,0)"/><path d="M105 0V82H254V648H105V730H495V648H346V82H495V0Z" transform="translate(12047.06,0)"/><path d="M115 0V730H205V82H535V0Z" transform="translate(12800.00,0)"/></g></g><g fill="#7d8a9c" opacity=".7"><g transform="translate(2129.20,86.00) scale(0.017000,-0.017000)"><path d="M92 0V730H318Q383 730 432.0 703.5Q481 677 508.0 630.0Q535 583 535 520Q535 446 496.5 393.0Q458 340 392 320L545 0H439L299 310H182V0ZM182 391H318Q374 391 408.0 426.5Q442 462 442 520Q442 579 408.0 614.0Q374 649 318 649H182Z" transform="translate(0.00,0)"/><path d="M100 0V730H520V648H189V422H485V341H189V82H520V0Z" transform="translate(752.94,0)"/><path d="M304 -10Q238 -10 189.5 15.0Q141 40 114.5 87.5Q88 135 88 200V530Q88 596 114.5 643.0Q141 690 189.5 715.0Q238 740 304 740Q370 740 418.0 714.5Q466 689 492.0 642.0Q518 595 518 530H428Q428 592 395.5 625.5Q363 659 304 659Q245 659 211.5 626.0Q178 593 178 531V200Q178 138 211.5 104.5Q245 71 304 71Q363 71 395.5 104.5Q428 138 428 200H518Q518 136 492.0 88.5Q466 41 418.0 15.5Q370 -10 304 -10Z" transform="translate(1505.88,0)"/><path d="M105 0V82H254V648H105V730H495V648H346V82H495V0Z" transform="translate(2258.82,0)"/><path d="M95 0V731H525V649H183V406H499V324H185V0Z" transform="translate(3011.76,0)"/><path d="M100 0V730H520V648H189V422H485V341H189V82H520V0Z" transform="translate(3764.71,0)"/><path d="M300 260Q262 260 239.5 282.0Q217 304 217 341Q217 380 239.5 403.0Q262 426 300 426Q338 426 360.5 403.0Q383 380 383 341Q383 304 360.5 282.0Q338 260 300 260Z" transform="translate(5270.59,0)"/><path d="M92 0V730H327Q395 730 445.0 703.5Q495 677 522.5 629.0Q550 581 550 515Q550 450 522.5 401.5Q495 353 445.0 326.5Q395 300 327 300H182V0ZM182 381H327Q386 381 421.5 417.5Q457 454 457 515Q457 577 421.5 613.0Q386 649 327 649H182Z" transform="translate(6776.47,0)"/><path d="M100 0V730H520V648H189V422H485V341H189V82H520V0Z" transform="translate(7529.41,0)"/></g></g><g stroke="#2e3744" stroke-width="1.4" opacity=".9"><line x1="113" y1="54" x2="147" y2="54"/><line x1="130" y1="37" x2="130" y2="71"/></g><g stroke="#2e3744" stroke-width="1.4" opacity=".9"><line x1="2253" y1="54" x2="2287" y2="54"/><line x1="2270" y1="37" x2="2270" y2="71"/></g><line x1="130" y1="562" x2="2270" y2="562" stroke="#2e3744" stroke-width="1.4"/><line x1="130.0" y1="562" x2="130.0" y2="549" stroke="#7d8a9c" stroke-opacity="0.55" stroke-width="1.4"/><line x1="163.4" y1="562" x2="163.4" y2="556" stroke="#2e3744" stroke-opacity="0.85" stroke-width="1.4"/><line x1="196.9" y1="562" x2="196.9" y2="556" stroke="#2e3744" stroke-opacity="0.85" stroke-width="1.4"/><line x1="230.3" y1="562" x2="230.3" y2="556" stroke="#2e3744" stroke-opacity="0.85" stroke-width="1.4"/><line x1="263.8" y1="562" x2="263.8" y2="556" stroke="#2e3744" stroke-opacity="0.85" stroke-width="1.4"/><line x1="297.2" y1="562" x2="297.2" y2="556" stroke="#2e3744" stroke-opacity="0.85" stroke-width="1.4"/><line x1="330.6" y1="562" x2="330.6" y2="556" stroke="#2e3744" stroke-opacity="0.85" stroke-width="1.4"/><line x1="364.1" y1="562" x2="364.1" y2="556" stroke="#2e3744" stroke-opacity="0.85" stroke-width="1.4"/><line x1="397.5" y1="562" x2="397.5" y2="549" stroke="#7d8a9c" stroke-opacity="0.55" stroke-width="1.4"/><line x1="430.9" y1="562" x2="430.9" y2="556" stroke="#2e3744" stroke-opacity="0.85" stroke-width="1.4"/><line x1="464.4" y1="562" x2="464.4" y2="556" stroke="#2e3744" stroke-opacity="0.85" stroke-width="1.4"/><line x1="497.8" y1="562" x2="497.8" y2="556" stroke="#2e3744" stroke-opacity="0.85" stroke-width="1.4"/><line x1="531.2" y1="562" x2="531.2" y2="556" stroke="#2e3744" stroke-opacity="0.85" stroke-width="1.4"/><line x1="564.7" y1="562" x2="564.7" y2="556" stroke="#2e3744" stroke-opacity="0.85" stroke-width="1.4"/><line x1="598.1" y1="562" x2="598.1" y2="556" stroke="#2e3744" stroke-opacity="0.85" stroke-width="1.4"/><line x1="631.6" y1="562" x2="631.6" y2="556" stroke="#2e3744" stroke-opacity="0.85" stroke-width="1.4"/><line x1="665.0" y1="562" x2="665.0" y2="549" stroke="#7d8a9c" stroke-opacity="0.55" stroke-width="1.4"/><line x1="698.4" y1="562" x2="698.4" y2="556" stroke="#2e3744" stroke-opacity="0.85" stroke-width="1.4"/><line x1="731.9" y1="562" x2="731.9" y2="556" stroke="#2e3744" stroke-opacity="0.85" stroke-width="1.4"/><line x1="765.3" y1="562" x2="765.3" y2="556" stroke="#2e3744" stroke-opacity="0.85" stroke-width="1.4"/><line x1="798.8" y1="562" x2="798.8" y2="556" stroke="#2e3744" stroke-opacity="0.85" stroke-width="1.4"/><line x1="832.2" y1="562" x2="832.2" y2="556" stroke="#2e3744" stroke-opacity="0.85" stroke-width="1.4"/><line x1="865.6" y1="562" x2="865.6" y2="556" stroke="#2e3744" stroke-opacity="0.85" stroke-width="1.4"/><line x1="899.1" y1="562" x2="899.1" y2="556" stroke="#2e3744" stroke-opacity="0.85" stroke-width="1.4"/><line x1="932.5" y1="562" x2="932.5" y2="549" stroke="#7d8a9c" stroke-opacity="0.55" stroke-width="1.4"/><line x1="965.9" y1="562" x2="965.9" y2="556" stroke="#2e3744" stroke-opacity="0.85" stroke-width="1.4"/><line x1="999.4" y1="562" x2="999.4" y2="556" stroke="#2e3744" stroke-opacity="0.85" stroke-width="1.4"/><line x1="1032.8" y1="562" x2="1032.8" y2="556" stroke="#2e3744" stroke-opacity="0.85" stroke-width="1.4"/><line x1="1066.2" y1="562" x2="1066.2" y2="556" stroke="#2e3744" stroke-opacity="0.85" stroke-width="1.4"/><line x1="1099.7" y1="562" x2="1099.7" y2="556" stroke="#2e3744" stroke-opacity="0.85" stroke-width="1.4"/><line x1="1133.1" y1="562" x2="1133.1" y2="556" stroke="#2e3744" stroke-opacity="0.85" stroke-width="1.4"/><line x1="1166.6" y1="562" x2="1166.6" y2="556" stroke="#2e3744" stroke-opacity="0.85" stroke-width="1.4"/><line x1="1200.0" y1="562" x2="1200.0" y2="549" stroke="#7d8a9c" stroke-opacity="0.55" stroke-width="1.4"/><line x1="1233.4" y1="562" x2="1233.4" y2="556" stroke="#2e3744" stroke-opacity="0.85" stroke-width="1.4"/><line x1="1266.9" y1="562" x2="1266.9" y2="556" stroke="#2e3744" stroke-opacity="0.85" stroke-width="1.4"/><line x1="1300.3" y1="562" x2="1300.3" y2="556" stroke="#2e3744" stroke-opacity="0.85" stroke-width="1.4"/><line x1="1333.8" y1="562" x2="1333.8" y2="556" stroke="#2e3744" stroke-opacity="0.85" stroke-width="1.4"/><line x1="1367.2" y1="562" x2="1367.2" y2="556" stroke="#2e3744" stroke-opacity="0.85" stroke-width="1.4"/><line x1="1400.6" y1="562" x2="1400.6" y2="556" stroke="#2e3744" stroke-opacity="0.85" stroke-width="1.4"/><line x1="1434.1" y1="562" x2="1434.1" y2="556" stroke="#2e3744" stroke-opacity="0.85" stroke-width="1.4"/><line x1="1467.5" y1="562" x2="1467.5" y2="549" stroke="#7d8a9c" stroke-opacity="0.55" stroke-width="1.4"/><line x1="1500.9" y1="562" x2="1500.9" y2="556" stroke="#2e3744" stroke-opacity="0.85" stroke-width="1.4"/><line x1="1534.4" y1="562" x2="1534.4" y2="556" stroke="#2e3744" stroke-opacity="0.85" stroke-width="1.4"/><line x1="1567.8" y1="562" x2="1567.8" y2="556" stroke="#2e3744" stroke-opacity="0.85" stroke-width="1.4"/><line x1="1601.2" y1="562" x2="1601.2" y2="556" stroke="#2e3744" stroke-opacity="0.85" stroke-width="1.4"/><line x1="1634.7" y1="562" x2="1634.7" y2="556" stroke="#2e3744" stroke-opacity="0.85" stroke-width="1.4"/><line x1="1668.1" y1="562" x2="1668.1" y2="556" stroke="#2e3744" stroke-opacity="0.85" stroke-width="1.4"/><line x1="1701.6" y1="562" x2="1701.6" y2="556" stroke="#2e3744" stroke-opacity="0.85" stroke-width="1.4"/><line x1="1735.0" y1="562" x2="1735.0" y2="549" stroke="#7d8a9c" stroke-opacity="0.55" stroke-width="1.4"/><line x1="1768.4" y1="562" x2="1768.4" y2="556" stroke="#2e3744" stroke-opacity="0.85" stroke-width="1.4"/><line x1="1801.9" y1="562" x2="1801.9" y2="556" stroke="#2e3744" stroke-opacity="0.85" stroke-width="1.4"/><line x1="1835.3" y1="562" x2="1835.3" y2="556" stroke="#2e3744" stroke-opacity="0.85" stroke-width="1.4"/><line x1="1868.8" y1="562" x2="1868.8" y2="556" stroke="#2e3744" stroke-opacity="0.85" stroke-width="1.4"/><line x1="1902.2" y1="562" x2="1902.2" y2="556" stroke="#2e3744" stroke-opacity="0.85" stroke-width="1.4"/><line x1="1935.6" y1="562" x2="1935.6" y2="556" stroke="#2e3744" stroke-opacity="0.85" stroke-width="1.4"/><line x1="1969.1" y1="562" x2="1969.1" y2="556" stroke="#2e3744" stroke-opacity="0.85" stroke-width="1.4"/><line x1="2002.5" y1="562" x2="2002.5" y2="549" stroke="#7d8a9c" stroke-opacity="0.55" stroke-width="1.4"/><line x1="2035.9" y1="562" x2="2035.9" y2="556" stroke="#2e3744" stroke-opacity="0.85" stroke-width="1.4"/><line x1="2069.4" y1="562" x2="2069.4" y2="556" stroke="#2e3744" stroke-opacity="0.85" stroke-width="1.4"/><line x1="2102.8" y1="562" x2="2102.8" y2="556" stroke="#2e3744" stroke-opacity="0.85" stroke-width="1.4"/><line x1="2136.2" y1="562" x2="2136.2" y2="556" stroke="#2e3744" stroke-opacity="0.85" stroke-width="1.4"/><line x1="2169.7" y1="562" x2="2169.7" y2="556" stroke="#2e3744" stroke-opacity="0.85" stroke-width="1.4"/><line x1="2203.1" y1="562" x2="2203.1" y2="556" stroke="#2e3744" stroke-opacity="0.85" stroke-width="1.4"/><line x1="2236.6" y1="562" x2="2236.6" y2="556" stroke="#2e3744" stroke-opacity="0.85" stroke-width="1.4"/><line x1="2270.0" y1="562" x2="2270.0" y2="549" stroke="#7d8a9c" stroke-opacity="0.55" stroke-width="1.4"/></g></svg>
